<svg width="45" height="40" viewBox="0 0 45 40" fill="none" xmlns="http://www.w3.org/2000/svg">
<path fill-rule="evenodd" clip-rule="evenodd" d="M30.0297 7.5H15.1673V9.34239L10 9.34239V17.9843C10 21.3242 13.4883 24.0726 16.9116 24.3585C18.0354 25.6451 20.0122 26.5797 21.7715 26.9782V29.237C20.0891 29.7892 17.0839 31.0865 16.9116 32.5H28.4578C28.2838 31.0865 24.9724 29.7874 23.2867 29.237V26.9782C25.0527 26.5797 27.1181 25.6451 28.2436 24.3585C31.6653 24.0726 35 21.3242 35 17.9843V9.34239H30.0297V7.5ZM11.5868 10.98H15.0469V18.4239C15.0469 19.8928 15.4015 21.2902 16.0252 22.5483C13.4364 21.6673 11.5868 19.3978 11.5868 16.7423V10.98ZM25.14 20.059L22.5573 18.5382L19.9717 20.059L20.4654 16.8424L18.3749 14.5658L21.2631 14.0958L22.5573 11.1723L23.8486 14.0958L26.7368 14.5658L24.6477 16.8424L25.14 20.059ZM28.9778 22.7859C29.6049 21.4707 29.9645 20.0161 29.9645 18.4775V11.028H33.433V16.7209C33.433 19.4961 31.575 21.8656 28.9778 22.7859Z" fill="#6B7086"/>
</svg>
