<svg width="45" height="40" viewBox="0 0 45 40" fill="none" xmlns="http://www.w3.org/2000/svg">
<path fill-rule="evenodd" clip-rule="evenodd" d="M31.5633 19.7309C33.8133 19.7309 35.6367 17.8385 35.6367 15.5045V14.492C35.6367 12.1581 33.8133 10.2656 31.5633 10.2656C29.3129 10.2656 27.4892 12.1581 27.4892 14.4921V15.5045C27.4892 17.8385 29.313 19.7309 31.5633 19.7309ZM34.5772 20.3355C36.1089 21.0176 37.0498 22.2176 37.6242 23.277C38.3862 24.6822 37.7888 26.6705 36.4711 26.6705H31.4896H30.4772C30.4735 26.1421 30.3495 25.5952 30.0854 25.1083C29.4155 23.8729 28.3184 22.4735 26.5322 21.6781C26.5056 21.6974 26.4788 21.7165 26.4519 21.7354C26.9617 21.19 27.6008 20.692 28.4014 20.3355C29.2774 20.9713 30.3417 21.3457 31.4896 21.3457C32.6369 21.3457 33.7012 20.9713 34.5772 20.3355ZM9.26024 15.9444C9.26024 18.1754 11.0031 19.9843 13.1538 19.9843C15.3047 19.9843 17.0479 18.1754 17.0479 15.9445V14.9767C17.0479 12.7458 15.3047 10.9369 13.1538 10.9369C11.0031 10.9369 9.26024 12.7458 9.26024 14.9767V15.9444ZM10.2734 20.5624C8.80931 21.2144 7.91 22.3614 7.36092 23.3741C6.63257 24.7172 7.20359 26.6177 8.46315 26.6177H13.2246H14.1921C14.1956 26.1127 14.3142 25.5899 14.5666 25.1245C15.2069 23.9436 16.2556 22.6061 17.9628 21.8457C17.9885 21.8644 18.0143 21.8828 18.0403 21.901C17.553 21.3795 16.9419 20.9033 16.1765 20.5624C15.3391 21.1702 14.3219 21.528 13.2246 21.528C12.128 21.528 11.1107 21.1702 10.2734 20.5624ZM22.35 21.9745C24.9738 21.9745 27.1001 19.7677 27.1001 17.046V15.8654C27.1001 13.1437 24.9738 10.9369 22.35 10.9369C19.7259 10.9369 17.5993 13.1437 17.5993 15.8654V17.046C17.5993 19.7677 19.726 21.9745 22.35 21.9745ZM29.5037 25.7772C28.8338 24.5418 27.7367 23.1425 25.9505 22.347C24.929 23.0885 23.6879 23.525 22.3501 23.525C21.0114 23.525 19.7704 23.0885 18.7488 22.347C16.9627 23.1425 15.8655 24.5418 15.196 25.7772C14.3075 27.4158 15.0041 29.7344 16.5408 29.7344H22.3501H28.159C29.6956 29.7344 30.3923 27.4158 29.5037 25.7772Z" fill="#6B7086"/>
</svg>
