<svg width="45" height="40" viewBox="0 0 45 40" fill="none" xmlns="http://www.w3.org/2000/svg">
<path d="M36.5804 23.6677L34.9335 16.7286C34.0994 13.6444 31.2785 11.5 28.0557 11.5H16.9442C13.7213 11.5 10.9006 13.6443 10.0664 16.7286L8.41957 23.6677C7.998 25.6582 9.15778 27.6441 11.1105 28.2734L11.2067 28.304C13.014 28.8869 14.9857 28.1356 15.9343 26.5039L17.3672 24.4046C17.727 23.7857 18.3931 23.4039 19.1131 23.4039H25.8869C26.607 23.4039 27.273 23.7857 27.6328 24.4046L29.0657 26.5039C30.0143 28.1356 31.9864 28.8869 33.7937 28.304L33.8896 28.2734C35.8421 27.6441 37.002 25.6582 36.5804 23.6677ZM18.9055 19.0175H16.5985V21.3037H14.59V19.0175H12.283V17.0284H14.59V14.7432H16.5985V17.0284H18.9055V19.0175ZM29.0702 14.2669C29.7689 14.2669 30.3345 14.8273 30.3345 15.5196C30.3345 16.211 29.7689 16.7714 29.0702 16.7714C28.3724 16.7714 27.8068 16.211 27.8068 15.5196C27.8068 14.8273 28.3724 14.2669 29.0702 14.2669ZM26.5424 19.2763C25.8446 19.2763 25.2785 18.7154 25.2785 18.0232C25.2785 17.3322 25.8446 16.7714 26.5424 16.7714C27.2407 16.7714 27.8063 17.3322 27.8063 18.0232C27.8063 18.7155 27.2407 19.2763 26.5424 19.2763ZM29.0702 21.7804C28.3724 21.7804 27.8068 21.22 27.8068 20.5286C27.8068 19.8362 28.3724 19.2758 29.0702 19.2758C29.7689 19.2758 30.3345 19.8362 30.3345 20.5286C30.3345 21.22 29.7689 21.7804 29.0702 21.7804ZM31.598 19.2763C30.9001 19.2763 30.3345 18.7154 30.3345 18.0232C30.3345 17.3322 30.9001 16.7714 31.598 16.7714C32.2962 16.7714 32.8623 17.3322 32.8623 18.0232C32.8623 18.7155 32.2962 19.2763 31.598 19.2763Z" fill="#6B7086"/>
</svg>
