<svg width="45" height="40" viewBox="0 0 45 40" fill="none" xmlns="http://www.w3.org/2000/svg">
<path d="M15.9162 23.8608L14 29.3786L17.473 28.201L19.4484 31.3335L21.3885 25.7478L19.5454 24.1161L15.9162 23.8608Z" fill="#6B7086"/>
<path d="M29.0837 23.8608L25.4552 24.1161L23.6115 25.7478L25.5509 31.3335L27.5262 28.201L31 29.3786L29.0837 23.8608Z" fill="#6B7086"/>
<path d="M28.2023 22.661L28.4274 19.3598L30.5652 16.8651L28.4274 14.3697L28.2023 11.0685L24.9558 10.8397L22.5007 8.66675L20.0449 10.8397L16.7977 11.0685L16.5726 14.3704L14.4354 16.8658L16.5726 19.3605L16.7977 22.661L20.0456 22.8891L22.5014 25.0606L24.9565 22.8891L28.2023 22.661ZM22.4578 21.4126C19.9633 21.4126 17.9401 19.3569 17.9401 16.8222C17.9401 14.2875 19.9626 12.2304 22.4578 12.2304C24.953 12.2304 26.9754 14.2868 26.9754 16.8222C26.9754 19.3576 24.9523 21.4126 22.4578 21.4126Z" fill="#6B7086"/>
<path d="M20.9637 14.8809L21.1578 15.784L22.1195 15.3242H22.1307V19.3648H23.2781V14.2417H22.2968L20.9637 14.8809Z" fill="#6B7086"/>
</svg>
