<svg width="45" height="40" viewBox="0 0 45 40" fill="none" xmlns="http://www.w3.org/2000/svg">
<path d="M22.5005 22.2008C25.9777 22.2008 28.7956 19.5398 28.7956 16.2579V14.8342C28.7956 11.5523 25.9777 8.89124 22.5005 8.89124C19.0229 8.89124 16.2045 11.5523 16.2045 14.8342V16.2579C16.2045 19.5398 19.0229 22.2008 22.5005 22.2008Z" fill="white"/>
<path d="M31.9807 26.3371C31.0929 24.8474 29.6389 23.16 27.2718 22.2008C25.918 23.0949 24.2733 23.6213 22.5002 23.6213C20.7262 23.6213 19.0815 23.0949 17.7276 22.2008C15.3606 23.16 13.9065 24.8474 13.0193 26.3371C11.8417 28.313 12.7649 31.1088 14.8014 31.1088C16.838 31.1088 22.5003 31.1088 22.5003 31.1088C22.5003 31.1088 28.162 31.1088 30.1986 31.1088C32.2351 31.1088 33.1583 28.313 31.9807 26.3371Z" fill="white"/>
</svg>
