<svg width="45" height="40" viewBox="0 0 45 40" fill="none" xmlns="http://www.w3.org/2000/svg">
<path d="M31.6069 16.8726C29.5706 16.8726 28.7381 15.4326 29.7506 13.6664C30.3356 12.6426 29.9869 11.3376 28.9631 10.7526L27.0169 9.63886C26.1281 9.11011 24.9806 9.42511 24.4519 10.3139L24.3281 10.5276C23.3156 12.2939 21.6506 12.2939 20.6269 10.5276L20.5031 10.3139C19.9969 9.42511 18.8494 9.11011 17.9606 9.63886L16.0144 10.7526C14.9906 11.3376 14.6419 12.6539 15.2269 13.6776C16.2506 15.4326 15.4181 16.8726 13.3819 16.8726C12.2119 16.8726 11.2444 17.8289 11.2444 19.0101V20.9901C11.2444 22.1601 12.2006 23.1276 13.3819 23.1276C15.4181 23.1276 16.2506 24.5676 15.2269 26.3339C14.6419 27.3576 14.9906 28.6626 16.0144 29.2476L17.9606 30.3614C18.8494 30.8901 19.9969 30.5751 20.5256 29.6864L20.6494 29.4726C21.6619 27.7064 23.3269 27.7064 24.3506 29.4726L24.4744 29.6864C25.0031 30.5751 26.1506 30.8901 27.0394 30.3614L28.9856 29.2476C30.0094 28.6626 30.3581 27.3464 29.7731 26.3339C28.7494 24.5676 29.5819 23.1276 31.6181 23.1276C32.7881 23.1276 33.7556 22.1714 33.7556 20.9901V19.0101C33.7444 17.8401 32.7881 16.8726 31.6069 16.8726ZM22.4944 23.6564C20.4806 23.6564 18.8381 22.0139 18.8381 20.0001C18.8381 17.9864 20.4806 16.3439 22.4944 16.3439C24.5081 16.3439 26.1506 17.9864 26.1506 20.0001C26.1506 22.0139 24.5081 23.6564 22.4944 23.6564Z" fill="#6B7086"/>
</svg>
