<svg width="124" height="75" viewBox="0 0 124 75" fill="none" xmlns="http://www.w3.org/2000/svg">
<path d="M9.34802 29.1528V11.088H10.4952V16.6694L10.0582 16.8439C10.0763 15.6146 10.3586 14.5432 10.9049 13.6296C11.4693 12.6993 12.2341 11.9768 13.1991 11.4618C14.1642 10.9468 15.284 10.6894 16.5586 10.6894C17.6511 10.6894 18.6253 10.8804 19.4811 11.2625C20.3369 11.6279 21.0561 12.1345 21.6388 12.7824C22.2397 13.4136 22.6949 14.1362 23.0044 14.9502C23.3139 15.7641 23.4687 16.6196 23.4687 17.5166V17.7658C23.4687 18.613 23.3139 19.4435 23.0044 20.2575C22.6949 21.0548 22.2397 21.7857 21.6388 22.4502C21.0561 23.098 20.3369 23.6213 19.4811 24.0199C18.6253 24.402 17.6511 24.593 16.5586 24.593C15.284 24.593 14.1551 24.3272 13.1718 23.7957C12.2067 23.2641 11.4511 22.5332 10.9049 21.603C10.3586 20.6561 10.0672 19.5847 10.0308 18.3887L10.7956 20.1329V29.1528H9.34802ZM16.3674 23.397C17.5692 23.397 18.5888 23.1312 19.4264 22.5997C20.2822 22.0515 20.9286 21.3455 21.3656 20.4817C21.8026 19.6013 22.0211 18.6545 22.0211 17.6412C22.0211 16.5781 21.7936 15.6146 21.3383 14.7508C20.9013 13.8704 20.2549 13.1728 19.3991 12.6578C18.5615 12.1428 17.551 11.8854 16.3674 11.8854C15.2749 11.8854 14.3007 12.1096 13.4449 12.5581C12.6073 12.99 11.9427 13.5964 11.4511 14.3771C10.9595 15.1412 10.7137 16.0216 10.7137 17.0183V18.289C10.7137 19.2359 10.9504 20.0997 11.4238 20.8804C11.9154 21.6445 12.58 22.2591 13.4176 22.7243C14.2734 23.1728 15.2567 23.397 16.3674 23.397ZM28.6503 24.1694V11.088H30.1252V24.1694H28.6503ZM26.274 12.2342V11.088H30.1252V12.2342H26.274ZM28.7869 8.34717C28.4045 8.34717 28.113 8.2558 27.9128 8.07309C27.7126 7.87375 27.6124 7.62458 27.6124 7.32558C27.6124 7.00996 27.7126 6.75249 27.9128 6.55315C28.113 6.35382 28.4135 6.25415 28.8142 6.25415C29.1965 6.25415 29.488 6.35382 29.6882 6.55315C29.8884 6.75249 29.9886 7.00996 29.9886 7.32558C29.9886 7.62458 29.8884 7.87375 29.6882 8.07309C29.506 8.2558 29.2056 8.34717 28.7869 8.34717ZM35.7806 24.1694V11.088H36.9277V16.4452H36.5999C36.5999 15.299 36.8001 14.3023 37.2008 13.4551C37.6195 12.5914 38.2297 11.9269 39.0308 11.4618C39.8502 10.9801 40.8607 10.7392 42.0625 10.7392H42.1444C43.9471 10.7392 45.3037 11.2542 46.214 12.2841C47.1244 13.2973 47.5797 14.6844 47.5797 16.4452V24.1694H46.1048V16.1462C46.1048 14.9003 45.7314 13.8954 44.985 13.1312C44.2565 12.3505 43.2006 11.9601 41.8167 11.9601C40.4147 11.9601 39.2949 12.3588 38.4572 13.1561C37.6378 13.9369 37.2281 14.9751 37.2281 16.2708V24.1694H35.7806ZM58.4737 29.2774C57.8364 29.2774 57.1716 29.2525 56.4798 29.2027C55.788 29.1528 55.1232 29.0781 54.486 28.9784V27.8073C55.1415 27.907 55.8243 27.9817 56.5344 28.0316C57.2629 28.0981 57.9457 28.1312 58.5829 28.1312C60.0395 28.1312 61.1866 27.9568 62.0243 27.608C62.862 27.2758 63.4629 26.7192 63.827 25.9385C64.191 25.1743 64.3732 24.1528 64.3732 22.8738V20.1827L65.0287 18.3638C65.0104 19.5598 64.7283 20.6146 64.182 21.5282C63.6541 22.4419 62.9166 23.1645 61.9697 23.696C61.0228 24.211 59.9122 24.4684 58.6375 24.4684C57.5633 24.4684 56.5981 24.2857 55.7424 23.9203C54.9047 23.5382 54.1946 23.0316 53.612 22.4003C53.0294 21.7525 52.5831 21.0216 52.2737 20.2076C51.9642 19.3771 51.8093 18.5299 51.8093 17.6661V17.4169C51.8093 16.5698 51.9642 15.7475 52.2737 14.9502C52.5831 14.1362 53.0294 13.4136 53.612 12.7824C54.1946 12.1345 54.914 11.6279 55.7697 11.2625C56.6254 10.8804 57.5996 10.6894 58.6922 10.6894C60.0215 10.6894 61.1686 10.9635 62.1336 11.5116C63.0985 12.0598 63.836 12.799 64.3459 13.7292C64.8739 14.6595 65.147 15.6894 65.1653 16.8189L64.619 16.1462V11.088H65.7935V22.8738C65.7935 24.4352 65.5567 25.6811 65.0833 26.6113C64.61 27.5581 63.836 28.2391 62.7618 28.6545C61.6875 29.0699 60.258 29.2774 58.4737 29.2774ZM58.8287 23.2475C59.9212 23.2475 60.8862 23.0316 61.7239 22.5997C62.5616 22.1512 63.2171 21.5449 63.6904 20.7807C64.1637 20 64.4005 19.1196 64.4005 18.1395V16.8688C64.4005 15.9219 64.1637 15.0747 63.6904 14.3272C63.2351 13.5631 62.5889 12.9568 61.7512 12.5083C60.9135 12.0598 59.9485 11.8355 58.856 11.8355C57.6543 11.8355 56.6347 12.1013 55.797 12.6329C54.9776 13.1644 54.3494 13.8621 53.9124 14.7259C53.4754 15.5897 53.2569 16.5282 53.2569 17.5415C53.2569 18.588 53.4844 19.5515 53.9397 20.4319C54.395 21.2957 55.0322 21.985 55.8516 22.5C56.6893 22.9983 57.6816 23.2475 58.8287 23.2475Z" fill="white"/>
<path d="M54.5521 72.7575V54.6927H55.6992V60.2741L55.2622 60.4485C55.2805 59.2193 55.5626 58.1479 56.1089 57.2342C56.6734 56.3041 57.4382 55.5815 58.4032 55.0664C59.3684 54.5514 60.4882 54.294 61.7626 54.294C62.8551 54.294 63.8294 54.4851 64.6851 54.8671C65.5411 55.2326 66.2602 55.7392 66.8428 56.387C67.4437 57.0182 67.899 57.7408 68.2085 58.5548C68.5182 59.3688 68.6728 60.2242 68.6728 61.1213V61.3704C68.6728 62.2176 68.5182 63.0481 68.2085 63.8621C67.899 64.6595 67.4437 65.3903 66.8428 66.0548C66.2602 66.7026 65.5411 67.2259 64.6851 67.6246C63.8294 68.0065 62.8551 68.1977 61.7626 68.1977C60.4882 68.1977 59.3591 67.9318 58.3759 67.4003C57.4109 66.8688 56.6551 66.1378 56.1089 65.2076C55.5626 64.2608 55.2715 63.1894 55.2349 61.9933L55.9996 63.7375V72.7575H54.5521ZM61.5714 67.0016C62.7732 67.0016 63.7931 66.7358 64.6305 66.2043C65.4865 65.6561 66.1327 64.9502 66.5697 64.0864C67.0067 63.2061 67.2252 62.2592 67.2252 61.2458C67.2252 60.1826 66.9977 59.2193 66.5424 58.3555C66.1054 57.4752 65.4591 56.7775 64.6032 56.2624C63.7658 55.7474 62.7552 55.49 61.5714 55.49C60.4789 55.49 59.505 55.7143 58.649 56.1628C57.8116 56.5946 57.1468 57.2011 56.6551 57.9817C56.1635 58.7459 55.9177 59.6262 55.9177 60.6229V61.8937C55.9177 62.8405 56.1545 63.7044 56.6278 64.485C57.1195 65.2492 57.7843 65.8637 58.6217 66.3289C59.4776 66.7774 60.4609 67.0016 61.5714 67.0016ZM79.3168 68.1977C78.1151 68.1977 77.0499 67.9983 76.1212 67.5997C75.1926 67.201 74.4098 66.6777 73.7723 66.0299C73.1534 65.382 72.6798 64.6595 72.3521 63.8621C72.0426 63.0481 71.8878 62.2176 71.8878 61.3704V61.1213C71.8878 60.2574 72.0516 59.4187 72.3794 58.6046C72.7071 57.7906 73.1898 57.0598 73.827 56.4119C74.4644 55.7641 75.2382 55.2491 76.1486 54.8671C77.0772 54.4851 78.1334 54.294 79.3168 54.294C80.4823 54.294 81.5202 54.4851 82.4305 54.8671C83.3591 55.2491 84.1422 55.7641 84.7794 56.4119C85.4169 57.0598 85.8992 57.7906 86.227 58.6046C86.573 59.4187 86.7459 60.2574 86.7459 61.1213V61.3704C86.7459 62.2176 86.582 63.0481 86.2543 63.8621C85.9265 64.6595 85.4442 65.382 84.8067 66.0299C84.1878 66.6777 83.4138 67.201 82.4851 67.5997C81.5748 67.9983 80.5186 68.1977 79.3168 68.1977ZM79.3168 66.9767C80.5915 66.9767 81.6657 66.7109 82.5397 66.1794C83.432 65.6479 84.1059 64.9502 84.5609 64.0864C85.0345 63.2061 85.271 62.2592 85.271 61.2458C85.271 60.1993 85.0345 59.2443 84.5609 58.3804C84.0876 57.5001 83.4047 56.8024 82.5124 56.2874C81.6384 55.7559 80.5732 55.49 79.3168 55.49C78.0787 55.49 77.0045 55.7559 76.0939 56.2874C75.2019 56.8024 74.5191 57.5001 74.0455 58.3804C73.5721 59.2443 73.3353 60.1993 73.3353 61.2458C73.3353 62.2592 73.5631 63.2061 74.0182 64.0864C74.4918 64.9502 75.1746 65.6479 76.0666 66.1794C76.9589 66.7109 78.0424 66.9767 79.3168 66.9767ZM91.1471 67.7741V54.6927H92.2942V60.0498H91.9665C91.9665 58.9036 92.1667 57.907 92.5674 57.0598C92.9861 56.1959 93.596 55.5316 94.3973 55.0664C95.2167 54.5848 96.2273 54.3438 97.429 54.3438H97.511C99.3136 54.3438 100.67 54.8589 101.581 55.8887C102.491 56.9021 102.946 58.2889 102.946 60.0498V67.7741H101.471V59.7508C101.471 58.505 101.098 57.5001 100.351 56.7359C99.6231 55.9552 98.5669 55.5648 97.1832 55.5648C95.781 55.5648 94.6611 55.9634 93.8237 56.7608C93.0044 57.5414 92.5947 58.5797 92.5947 59.8754V67.7741H91.1471ZM113.84 72.882C113.203 72.882 112.538 72.8571 111.846 72.8073C111.154 72.7575 110.49 72.6827 109.853 72.583V71.412C110.508 71.5116 111.191 71.5864 111.901 71.6362C112.629 71.7027 113.312 71.7359 113.949 71.7359C115.406 71.7359 116.553 71.5614 117.391 71.2126C118.228 70.8805 118.829 70.3238 119.193 69.5432C119.558 68.779 119.74 67.7574 119.74 66.4784V63.7874L120.395 61.9684C120.377 63.1644 120.095 64.2192 119.549 65.1329C119.02 66.0466 118.283 66.7692 117.336 67.3007C116.389 67.8157 115.278 68.0731 114.004 68.0731C112.93 68.0731 111.965 67.8904 111.109 67.5249C110.271 67.1429 109.561 66.6361 108.979 66.005C108.396 65.3571 107.95 64.6263 107.64 63.8123C107.33 62.9818 107.176 62.1346 107.176 61.2708V61.0216C107.176 60.1744 107.33 59.3521 107.64 58.5548C107.95 57.7408 108.396 57.0182 108.979 56.387C109.561 55.7392 110.28 55.2326 111.136 54.8671C111.992 54.4851 112.966 54.294 114.059 54.294C115.388 54.294 116.535 54.5681 117.5 55.1163C118.465 55.6644 119.203 56.4037 119.712 57.3339C120.24 58.264 120.514 59.2941 120.532 60.4236L119.986 59.7508V54.6927H121.16V66.4784C121.16 68.0399 120.923 69.2858 120.45 70.2159C119.976 71.1628 119.203 71.8438 118.128 72.2591C117.054 72.6745 115.625 72.882 113.84 72.882ZM114.195 66.8521C115.288 66.8521 116.253 66.6361 117.09 66.2043C117.928 65.7558 118.583 65.1496 119.057 64.3854C119.53 63.6047 119.767 62.7242 119.767 61.7442V60.4734C119.767 59.5266 119.53 58.6794 119.057 57.9319C118.602 57.1677 117.955 56.5614 117.118 56.1129C116.28 55.6644 115.315 55.4402 114.223 55.4402C113.021 55.4402 112.001 55.7061 111.164 56.2375C110.344 56.769 109.716 57.4667 109.279 58.3306C108.842 59.1944 108.623 60.1328 108.623 61.1462C108.623 62.1927 108.851 63.1562 109.306 64.0365C109.761 64.9004 110.399 65.5896 111.218 66.1046C112.056 66.603 113.048 66.8521 114.195 66.8521Z" fill="white"/>
<path d="M36.326 72.7575L48.4695 39.3979L65.7454 39.1096L83.0308 6.22925L72.5321 44.0108L54.6395 44.2991L36.326 72.7575Z" fill="#E7BE4D"/>
<path d="M17.7533 39.3688H48.1549V54.8173H17.7533V39.3688Z" fill="url(#paint0_linear_443_3608)"/>
<path d="M17.7533 54.8173C13.0771 54.8173 9.28632 51.3591 9.28632 47.093C9.28632 42.827 13.0771 39.3688 17.7533 39.3688C22.4294 39.3688 26.2202 42.827 26.2202 47.093C26.2202 51.3591 22.4294 54.8173 17.7533 54.8173Z" fill="url(#paint1_linear_443_3608)"/>
<path d="M112.647 28.5354H71.1318V43.9839H112.647V28.5354Z" fill="url(#paint2_linear_443_3608)"/>
<path d="M112.731 44.0001C108.055 44.0001 104.264 40.5419 104.264 36.2758C104.264 32.0098 108.055 28.5516 112.731 28.5516C117.407 28.5516 121.198 32.0098 121.198 36.2758C121.198 40.5419 117.407 44.0001 112.731 44.0001Z" fill="url(#paint3_linear_443_3608)"/>
<defs>
<linearGradient id="paint0_linear_443_3608" x1="48.1549" y1="47.093" x2="17.7533" y2="47.093" gradientUnits="userSpaceOnUse">
<stop stop-color="#E7BE4D" stop-opacity="0"/>
<stop offset="0.34" stop-color="#E7BE4D" stop-opacity="0.05"/>
<stop offset="1" stop-color="#E7BE4D" stop-opacity="0.3"/>
</linearGradient>
<linearGradient id="paint1_linear_443_3608" x1="26.2202" y1="47.093" x2="9.28632" y2="47.093" gradientUnits="userSpaceOnUse">
<stop stop-color="#E7BE4D"/>
<stop offset="0.4" stop-color="#D4B045"/>
<stop offset="0.67" stop-color="#A89033"/>
<stop offset="1" stop-color="#5D5814"/>
</linearGradient>
<linearGradient id="paint2_linear_443_3608" x1="71.1318" y1="36.2597" x2="112.647" y2="36.2597" gradientUnits="userSpaceOnUse">
<stop stop-color="#E7BE4D" stop-opacity="0"/>
<stop offset="0.34" stop-color="#E7BE4D" stop-opacity="0.05"/>
<stop offset="1" stop-color="#E7BE4D" stop-opacity="0.3"/>
</linearGradient>
<linearGradient id="paint3_linear_443_3608" x1="121.198" y1="36.2758" x2="104.264" y2="36.2758" gradientUnits="userSpaceOnUse">
<stop stop-color="#E7BE4D"/>
<stop offset="0.4" stop-color="#D4B045"/>
<stop offset="0.67" stop-color="#A89033"/>
<stop offset="1" stop-color="#5D5814"/>
</linearGradient>
</defs>
</svg>
